<?xml version="1.0" standalone="no"?>
<!DOCTYPE svg PUBLIC "-//W3C//DTD SVG 20010904//EN"
 "http://www.w3.org/TR/2001/REC-SVG-20010904/DTD/svg10.dtd">
<svg version="1.0" xmlns="http://www.w3.org/2000/svg"
 width="300.000000pt" height="45.000000pt" viewBox="0 0 300.000000 45.000000"
 preserveAspectRatio="xMidYMid meet">
<metadata>
Created by potrace 1.10, written by Peter Selinger 2001-2011
</metadata>
<g transform="translate(0.000000,45.000000) scale(0.100000,-0.100000)"
fill="#000000" stroke="none">
<path d="M158 407 c-26 -17 -47 -38 -45 -46 1 -7 25 -28 53 -46 l51 -33 48 30
48 30 -6 -46 c-7 -49 4 -66 29 -45 10 8 12 15 4 23 -5 5 -10 29 -10 53 0 41
-2 44 -55 78 -31 19 -59 35 -63 35 -4 0 -28 -15 -54 -33z m92 -19 c17 -12 30
-25 30 -28 0 -3 -14 -16 -30 -29 l-31 -22 -34 21 c-19 12 -35 24 -35 28 0 8
52 51 63 52 4 0 21 -10 37 -22z"/>
<path d="M47 367 c-15 -11 -17 -28 -15 -137 l3 -125 83 -3 c73 -2 82 -5 82
-22 0 -14 -8 -20 -35 -22 -20 -2 -35 -7 -35 -12 0 -5 43 -9 95 -9 93 0 137 15
63 21 -30 3 -38 7 -38 22 0 17 9 20 83 22 l82 3 3 124 c1 68 -1 128 -5 131
-17 16 -63 21 -63 7 0 -7 11 -13 28 -12 l27 0 3 -93 3 -92 -186 0 -186 0 3 93
c3 80 5 92 21 91 9 -1 17 4 17 12 0 17 -11 18 -33 1z m80 -233 c-3 -3 -12 -4
-19 -1 -8 3 -5 6 6 6 11 1 17 -2 13 -5z m120 -12 c-8 -7 -21 -10 -30 -6 -24 9
-11 24 18 22 21 -2 23 -5 12 -16z m106 11 c-7 -2 -19 -2 -25 0 -7 3 -2 5 12 5
14 0 19 -2 13 -5z"/>
<path d="M150 277 c0 -39 14 -54 56 -63 38 -7 70 19 78 64 6 34 -4 41 -24 17
-21 -26 -49 -27 -80 -5 l-30 21 0 -34z"/>
<path d="M583 270 c-28 -12 -45 -68 -32 -114 12 -42 52 -62 92 -47 22 9 27 17
27 46 0 32 -2 35 -30 35 -16 0 -30 -4 -30 -10 0 -5 9 -10 20 -10 13 0 20 -7
20 -19 0 -17 -18 -31 -40 -31 -40 0 -57 110 -20 130 21 11 60 -2 60 -20 0 -6
5 -10 10 -10 6 0 10 6 10 14 0 29 -51 50 -87 36z"/>
<path d="M1270 190 c0 -53 4 -90 10 -90 6 0 10 37 10 90 0 53 -4 90 -10 90 -6
0 -10 -37 -10 -90z"/>
<path d="M2616 273 c-11 -11 -6 -23 9 -23 8 0 15 4 15 9 0 13 -16 22 -24 14z"/>
<path d="M1130 190 c0 -47 4 -80 10 -80 6 0 10 14 10 30 0 26 4 30 26 30 41 0
64 18 64 48 0 39 -17 52 -67 52 l-43 0 0 -80z m85 30 c0 -21 -5 -26 -32 -28
-31 -3 -33 -2 -33 31 0 34 1 34 33 28 26 -6 32 -12 32 -31z"/>
<path d="M2260 260 c0 -5 14 -10 31 -10 l31 0 -4 -70 c-2 -51 0 -70 10 -70 8
0 12 21 12 74 0 73 0 73 25 68 15 -2 25 0 25 7 0 7 -24 11 -65 11 -37 0 -65
-4 -65 -10z"/>
<path d="M2150 246 c0 -8 -6 -17 -12 -20 -10 -5 -10 -7 0 -12 7 -3 12 -25 12
-54 0 -49 21 -73 44 -50 7 7 5 10 -7 10 -13 0 -17 9 -17 44 0 26 5 47 13 50
10 5 10 7 0 12 -7 3 -13 12 -13 20 0 8 -4 14 -10 14 -5 0 -10 -6 -10 -14z"/>
<path d="M716 214 c-26 -25 -20 -81 9 -100 21 -14 31 -15 51 -5 14 6 22 15 19
21 -4 6 -13 5 -25 -2 -14 -9 -22 -9 -34 1 -26 22 -19 31 24 31 35 0 40 3 40
23 0 45 -52 64 -84 31z m62 -21 c2 -9 -7 -13 -27 -13 -30 0 -39 9 -24 24 11
10 46 3 51 -11z"/>
<path d="M826 168 c1 -73 18 -81 22 -10 3 48 5 52 28 52 23 0 24 -3 24 -55 0
-32 4 -55 10 -55 7 0 10 24 8 63 l-3 62 -45 1 -45 1 1 -59z"/>
<path d="M945 220 c3 -5 20 -10 36 -10 l31 0 -37 -50 -37 -50 46 0 c25 0 48 0
51 0 3 0 4 3 3 8 -2 4 -18 6 -36 4 l-33 -3 36 49 c19 27 35 52 35 56 0 3 -23
6 -51 6 -31 0 -48 -4 -44 -10z"/>
<path d="M1330 215 c-19 -22 -5 -30 21 -11 17 11 26 13 36 4 21 -17 15 -28
-15 -28 -32 0 -52 -16 -52 -42 0 -24 35 -41 58 -29 13 7 23 6 30 -1 9 -9 12 1
12 43 0 30 -5 60 -12 67 -17 17 -63 15 -78 -3z m68 -61 c-5 -25 -35 -41 -49
-27 -9 9 -9 16 1 28 17 21 52 20 48 -1z"/>
<path d="M1454 205 c-21 -32 -12 -69 21 -91 23 -15 27 -15 50 0 14 9 25 21 25
26 0 14 -11 12 -31 -6 -34 -30 -66 6 -48 54 8 22 49 32 49 12 0 -5 7 -10 15
-10 13 0 14 4 5 20 -16 30 -65 27 -86 -5z"/>
<path d="M1583 218 c-43 -56 0 -131 62 -108 14 5 23 15 20 20 -5 8 -11 7 -20
0 -17 -15 -55 -4 -55 16 0 10 12 14 40 14 43 0 50 13 30 51 -12 22 -62 26 -77
7z m65 -25 c2 -9 -7 -13 -27 -13 -30 0 -39 9 -24 24 11 10 46 3 51 -11z"/>
<path d="M1690 169 c0 -74 18 -87 22 -17 3 49 5 53 28 53 23 0 25 -4 26 -50 1
-66 18 -64 22 3 3 48 5 52 28 52 23 0 24 -3 24 -55 0 -32 4 -55 10 -55 7 0 10
24 8 63 -3 56 -5 62 -26 65 -13 2 -29 -2 -37 -8 -9 -7 -15 -8 -20 -1 -3 6 -24
10 -46 9 l-39 -1 0 -58z"/>
<path d="M1906 214 c-26 -25 -20 -81 9 -100 21 -14 31 -15 51 -5 14 6 22 15
19 21 -4 6 -13 5 -25 -2 -14 -9 -22 -9 -34 1 -26 22 -19 31 24 31 35 0 40 3
40 23 0 45 -52 64 -84 31z m62 -21 c2 -9 -7 -13 -27 -13 -30 0 -39 9 -24 24
11 10 46 3 51 -11z"/>
<path d="M2012 165 c4 -74 22 -79 26 -7 3 48 5 52 28 52 23 0 24 -3 24 -55 0
-30 5 -55 10 -55 12 0 13 99 2 117 -4 7 -26 11 -50 10 l-43 -1 3 -61z"/>
<path d="M2410 163 c0 -35 4 -63 10 -63 6 0 10 23 10 51 0 42 3 52 20 56 30 8
24 22 -10 21 l-30 -1 0 -64z"/>
<path d="M2503 224 c-13 -6 -19 -34 -7 -34 3 0 12 7 20 15 17 16 44 10 44 -11
0 -8 -10 -14 -24 -14 -24 0 -56 -23 -56 -40 0 -16 48 -42 62 -34 7 5 20 7 28
6 13 -2 14 7 10 55 -5 56 -6 58 -35 60 -16 1 -36 0 -42 -3z m57 -73 c0 -20
-25 -35 -41 -25 -13 8 -11 32 4 37 25 11 37 7 37 -12z"/>
<path d="M2616 170 c1 -80 18 -82 22 -2 2 46 0 62 -10 62 -9 0 -13 -17 -12
-60z"/>
<path d="M2670 163 c0 -76 18 -85 22 -10 3 45 6 52 25 55 20 3 22 -2 25 -50 4
-63 22 -71 26 -11 5 63 -10 83 -58 81 l-40 -1 0 -64z"/>
<path d="M2806 208 c-28 -39 -18 -84 21 -99 16 -6 31 -5 44 1 28 16 23 32 -6
18 -19 -8 -28 -8 -40 2 -25 21 -17 30 25 30 35 0 40 3 40 23 0 48 -56 65 -84
25z m64 -13 c0 -10 -10 -15 -30 -15 -22 0 -28 4 -24 15 4 8 17 15 30 15 15 0
24 -6 24 -15z"/>
<path d="M2920 163 c0 -35 4 -63 10 -63 6 0 10 23 10 51 0 42 3 52 20 56 30 8
24 22 -10 21 l-30 -1 0 -64z"/>
</g>
</svg>
